<?xml version="1.0" encoding="iso-8859-1"?>
<!-- Uploaded to: SVG Repo, www.svgrepo.com, Generator: SVG Repo Mixer Tools -->
<!DOCTYPE svg PUBLIC "-//W3C//DTD SVG 1.1//EN" "http://www.w3.org/Graphics/SVG/1.1/DTD/svg11.dtd">
<svg fill="#000000" height="800px" width="800px" version="1.1" id="Capa_1" xmlns="http://www.w3.org/2000/svg" xmlns:xlink="http://www.w3.org/1999/xlink" 
	 viewBox="0 0 292.915 292.915" xml:space="preserve">
<g>
	<path d="M134.997,150.764c0,5.823-2.153,8.564-6.068,8.564c-3.816,0-5.97-2.888-5.97-8.564v-18.987h-7.487v18.399
		c0,10.521,4.894,15.121,13.213,15.121c8.612,0,13.75-4.845,13.75-15.023v-18.498h-7.438V150.764z"/>
	<path d="M164.355,145.87c-1.126,3.768-2.153,7.683-2.985,11.646h-0.147c-0.783-4.11-1.811-7.879-2.936-11.794l-4.013-13.946h-8.172
		l10.57,32.982h8.71l11.108-32.982h-7.928L164.355,145.87z"/>
	<path d="M146.457,0L0,146.455l146.457,146.46l146.458-146.46L146.457,0z M215.423,201.292l-12.131,12.131l-27.457-27.457
		c-6.052,4.406-13.12,7.49-20.8,8.819v38.627H137.88v-38.635c-7.679-1.329-14.752-4.401-20.803-8.807l-27.453,27.453l-12.131-12.131
		l27.648-27.648c-4.126-6.053-6.954-13.05-8.094-20.609H57.504V135.88h39.913c1.424-7.26,4.415-13.953,8.613-19.719L77.492,87.623
		l12.131-12.131l28.729,28.729c5.763-3.929,12.38-6.686,19.527-7.924V55.504h17.155v40.793c7.147,1.238,13.764,3.996,19.527,7.925
		l28.73-28.729l12.131,12.131l-28.537,28.537c4.198,5.766,7.187,12.459,8.612,19.72h39.914v17.155h-39.543
		c-1.141,7.558-3.968,14.557-8.093,20.609L215.423,201.292z"/>
</g>
</svg>